<?xml version="1.0" encoding="UTF-8"?>
<svg id="Capa_1" data-name="Capa 1" xmlns="http://www.w3.org/2000/svg" version="1.1" viewBox="0 0 865 506">
  <defs>
    <style>
      .cls-1, .cls-2 {
        fill: #000;
      }

      .cls-1, .cls-3 {
        stroke: #000;
        stroke-miterlimit: 10;
      }

      .cls-2, .cls-4 {
        stroke-width: 0px;
      }

      .cls-3 {
        fill: none;
      }

      .cls-4 {
        fill: #991f1c;
      }
    </style>
  </defs>
  <path class="cls-3" d="M706.2,244.8"/>
  <path class="cls-2" d="M97.6,331.7l-31.8-82.9c-2-5.2-4.6-10.1-9.4-10.9-1.1-.1-1.4-.6-1.4-1.5s.6-1.5,1.5-1.5h39.7c1,0,1.5.6,1.5,1.5s-.3,1.4-1.4,1.5c-7.6,1-9.3,3.9-6.6,10.9l18,47.5,17.5-47.5c2-5.2,1.3-9.5-6.2-10.9-1.1-.1-1.4-.6-1.4-1.5s.6-1.5,1.5-1.5h27.2c1,0,1.5.6,1.5,1.5s-.3,1.4-1.4,1.5c-3.4.4-6,3.9-8.8,10.9l-32.3,82.9c-.7,1.8-2.1,2.7-4.1,2.7s-3.1-.8-3.8-2.7Z"/>
  <path class="cls-2" d="M150.1,331.4c0-1,.3-1.4,1.4-1.5,4.8-.8,7.6-5.3,7.6-10.9v-70.1c0-5.6-2.8-10.1-7.6-10.9-1.1-.1-1.4-.6-1.4-1.5s.6-1.5,1.5-1.5h37.3c1,0,1.5.6,1.5,1.5s-.3,1.4-1.4,1.5c-4.8.8-7.6,5.3-7.6,10.9v70.1c0,5.6,2.8,10.1,7.6,10.9,1.1.1,1.4.6,1.4,1.5s-.6,1.5-1.5,1.5h-37.3c-1,0-1.5-.6-1.5-1.5Z"/>
  <path class="cls-2" d="M200.3,327.5c-.8-.6-1.7-.7-2-3.2l-2.9-30.4c-.3-2.8,3.1-3.4,3.6-1.3,4.6,18.1,17.5,29.9,35.5,29.9s17-4.6,17-12.9c0-19.5-50.5-16.3-50.5-47.1s12.6-29,38.7-29,20.5,2.4,24.8,3.4c1,.3,1.5.7,2,3.2l4.6,28.3c.4,2.8-2.7,3.2-3.6,1.3-10.5-20.6-19.5-25-28.6-25s-14.6,4.9-14.6,11.5c0,19.8,50.6,13.2,50.6,48.5s-15.6,29.7-41.4,29.7-27.1-2.8-33.2-6.9Z"/>
  <path class="cls-2" d="M285.7,299.3v-50.4c0-5.6-2.8-10.1-7.6-10.9-1.1-.1-1.4-.6-1.4-1.5s.6-1.5,1.5-1.5h37.3c1,0,1.5.6,1.5,1.5s-.3,1.4-1.4,1.5c-4.8.8-7.6,5.3-7.6,10.9v50.4c0,12.1,5.3,21.3,18.9,21.3s17.7-6.7,17.7-22.6v-48.2c0-7.4-5.2-10.9-10-11.8-1.1-.1-1.4-.6-1.4-1.5s.6-1.5,1.5-1.5h27.9c1,0,1.5.6,1.5,1.5s-.3,1.4-1.4,1.5c-4.8.8-6.3,5.3-6.3,10.9v50.4c0,22.7-12.1,35.1-34.5,35.1s-36.5-15.4-36.5-35.1Z"/>
  <path class="cls-2" d="M367.9,331.4c0-1,.3-1.4,1.4-1.5,4.8-.8,6.3-5.3,6.3-10.9v-70.7.6c-.1-5.6-2.9-10.1-7.7-10.9-1.1-.1-1.4-.6-1.4-1.5s.6-1.5,1.5-1.5h26.5c10.8.4,10.2,4.6,20.6,26.5l12.1,25.5,19.6-46c1.3-2.9,2.1-6,5.2-6h30.4c1,0,1.5.6,1.5,1.5s-.3,1.4-1.4,1.5c-4.8.8-7.6,5.3-7.6,10.9v70.1c0,5.6,2.8,10.1,7.6,10.9,1.1.1,1.4.6,1.4,1.5s-.6,1.5-1.5,1.5h-37.3c-1,0-1.7-.6-1.7-1.5s.4-1.4,1.5-1.5c4.8-.6,7.6-5.3,7.6-10.9v-64.5l-30.3,70.4c-1.7,3.9-3.4,3.9-5.2,0l-29.6-66.3v60.4c0,5.6,3.5,10.1,8.3,10.9,1.1.1,1.4.6,1.4,1.5s-.6,1.5-1.5,1.5h-26.2c-1,0-1.5-.6-1.5-1.5Z"/>
  <path class="cls-2" d="M674.5,331.4c0-1,.3-1.4,1.4-1.5,4.8-.8,7.6-5.3,7.6-10.9v-70.1c0-5.6-2.8-10.1-7.6-10.9-1.1-.1-1.4-.6-1.4-1.5s.6-1.5,1.5-1.5h37.3c1,0,1.5.6,1.5,1.5s-.3,1.4-1.4,1.5c-4.8.8-7.6,5.3-7.6,10.9v70.1c0,5.6,2.8,10.1,7.6,10.9,1.1.1,1.4.6,1.4,1.5s-.6,1.5-1.5,1.5h-37.3c-1,0-1.5-.6-1.5-1.5Z"/>
  <path class="cls-2" d="M721.2,283.6c0-31.8,14.7-50.2,44.3-50.2s44.5,18.4,44.5,50.2-14.9,50.4-44.5,50.4-44.3-18.5-44.3-50.4ZM785.5,283.7c0-24.3-5.3-37.7-19.9-37.7s-19.8,13.5-19.8,37.7,5.2,37.6,19.8,37.6,19.9-13.3,19.9-37.6Z"/>
  <path class="cls-4" d="M785.9,287.2v-4.7c-1.3-5.9-5.8-10.5-11.4-11.8-6.6-1.5-13.6,1.7-17,7.9-1.8-.5-5.3-1.1-9.3,0-8.1,2.5-11.2,10.4-11.5,11.4-.8,2-1.7,4.6-2.2,7.6-.4,2.6-.6,4.9-.5,6.8,0,0-.9,6.9,3.5,24.1,0,0,6,33,2.2,44.3,0,0-1.6,10.8-10.7,5.9,0,0-7.9-5.9-11.3,3.9,0,0,4.2-3.9,10.3,0,.8.4,1.6.8,2.4,1.2,1.6.9,3.2,1.8,4.7,2.7,0,0-3.1,3-6.3,1-10.7-6.7-15.4,6.4-15.4,6.4,2.5-4.4,8.2-3.9,8.2-3.9.4,0,1,0,1.7.3,3.9,1.1,4.7,4.9,7.7,6.6,1.4.8,3.6,1.3,7.2.1,2-.6,3.5-1.3,4.6-1.9,3-1.6,5.8-4.2,5.8-4.2,15.4-15.3,11.6-50.7,11.6-50.7,0-8.5.6-18.2,2.6-28.7.5-2.8,1.2-5.5,1.8-8.1.2-.7.9-3.5,3.6-5.2,1.7-1.1,3.4-1.1,4.1-1.1,3.9.1,8.5,5.8,10.2,13.5,0,0,3.6-9.7,3.6-23.8Z"/>
  <g>
    <path class="cls-2" d="M486.9,331.4c0-1,.3-1.4,1.4-1.5,4.8-.8,7.6-5.3,7.6-10.9v-70.1c0-5.6-2.8-10.1-7.6-10.9-1.1-.1-1.4-.6-1.4-1.5s.6-1.5,1.5-1.5h42.9c24.4,0,38.3,7.3,38.3,24.7s-7.7,20.8-24,20.8c17.8,0,29.3,8.4,29.3,24.7s-15,28-42.2,28h-44.3c-1,0-1.5-.6-1.5-1.5ZM544.6,259.9c0-9.1-5-15-15-15h-11.4v30.6h9.7c10.9,0,16.7-5.9,16.7-15.6ZM550,304.9c0-12.1-8.7-19.4-20.6-19.4h-11.1v37.3h13.2c10.9,0,18.5-6.6,18.5-18Z"/>
    <rect class="cls-1" x="514" y="240.5" width="30.8" height="36.2"/>
  </g>
  <g>
    <path class="cls-2" d="M579.8,331.4c0-1,.3-1.4,1.4-1.5,4.8-.8,7.6-5.3,7.6-10.9v-70.1c0-5.6-2.8-10.1-7.6-10.9-1.1-.1-1.4-.6-1.4-1.5s.6-1.5,1.5-1.5h41.1c27.1,0,41.2,10.1,41.2,29.2s-4.9,19.2-16.3,23.4l3.4,14.6c2,8.7,10,26.6,20.2,27.8,1,.1,1.4.7,1.4,1.5v.3c0,1-.4,1.4-1.4,1.4-11.5,0-29.2-.3-39-23.8l-7.7-18.7-5.2-10.1c12.3,0,19.6-5.3,19.6-17.8s-6.2-17.5-18-17.5h-9.5v73.9c0,5.6,2.8,10.1,7.6,10.9,1.1.1,1.4.6,1.4,1.5s-.6,1.5-1.5,1.5h-37.3c-1,0-1.5-.6-1.5-1.5Z"/>
    <path class="cls-2" d="M610.3,272.5c.4.3.6.8.8,1.2s.7,1.1,1.2,1.6c.9.9,2,1.7,3.1,2.5,2.1,1.5,4.4,2.9,6.7,4s1.6.2,2.1-.5.2-1.7-.5-2.1c-2.3-1.1-4.5-2.4-6.6-3.9s-1.9-1.3-2.7-2.2-1.1-2-2-2.8-1.5-.6-2.1,0-.6,1.6,0,2.1h0Z"/>
    <rect class="cls-1" x="605.1" y="244.1" width="36.1" height="33.2" transform="translate(247.1 -300.4) rotate(33.5)"/>
  </g>
</svg>